<svg width="800" height="800" viewBox="0 0 800 800" fill="none" xmlns="http://www.w3.org/2000/svg">
<path d="M66.6665 100H150L216.666 566.667H566.666M566.666 566.667C529.846 566.667 500 596.513 500 633.333C500 670.153 529.846 700 566.666 700C603.486 700 633.333 670.153 633.333 633.333C633.333 596.513 603.486 566.667 566.666 566.667ZM202.381 466.667H600L700 166.667H159.523M366.666 633.333C366.666 670.153 336.82 700 300 700C263.181 700 233.333 670.153 233.333 633.333C233.333 596.513 263.181 566.667 300 566.667C336.82 566.667 366.666 596.513 366.666 633.333Z" stroke="#1492A4" stroke-width="50" stroke-linecap="round" stroke-linejoin="round"/>
<path d="M298.289 350.474C270.325 327.539 255.554 294.525 255.554 255.095V67.6625C299.713 44.2128 353.184 32.3281 414.49 32.3281C475.795 32.3281 529.272 44.2128 573.426 67.6625V255.095C573.426 294.525 558.655 327.515 530.69 350.474C505.107 371.479 423.819 407.21 414.484 411.276C405.16 407.21 323.873 371.485 298.289 350.474Z" fill="#330000"/>
<path d="M565.124 64.8574C544.638 62.9585 523.358 61.7045 501.682 61.7045C421.291 61.7045 335.106 78.9596 263.856 144.212V255.746C263.856 292.072 277.31 322.406 302.873 343.21C325.444 361.548 394.905 392.959 414.49 401.589C433.826 393.089 503.109 362.092 526.077 343.21C551.8 322.045 565.124 292.415 565.124 255.746V64.8574ZM278.584 244.14V153.558H307.428V245.418C307.428 253.593 309.407 265.696 322.636 265.696C327.43 265.889 332.173 264.654 336.261 262.146V153.558H365.07V278.573C352.059 286.682 336.914 290.712 321.587 290.144C293.033 290.144 278.554 274.669 278.554 244.14M408.779 348.694H379.916V160.893C391.592 153.733 405.121 150.167 418.814 150.642C453.263 150.642 472.191 176.74 472.191 218.745C472.191 260.75 453.826 289.647 421.777 289.647C417.39 289.726 413.014 289.174 408.785 288.008L408.779 348.694ZM408.779 264.459C411.775 265.58 414.945 266.169 418.145 266.198C434.733 266.198 442.683 250.978 442.683 219.467C442.683 187.187 435.746 173.836 418.986 173.836C415.47 173.807 411.987 174.514 408.761 175.912L408.779 264.459ZM478.731 188.198C478.912 178.102 483.085 168.487 490.339 161.451C497.593 154.415 507.339 150.529 517.452 150.642C528.771 150.043 539.953 153.347 549.122 160V185.063C542.326 177.983 533.084 173.752 523.275 173.233C515.094 173.162 506.581 176.752 506.303 186.998C506.024 197.486 514.519 201.626 525.26 207.932C549.365 222.082 554.028 234.8 553.471 251.605C552.92 270.032 540.201 290.156 511.688 290.156C500.507 290.03 489.559 286.944 479.964 281.212V254.669C487.586 261.547 497.298 265.675 507.547 266.394C518.133 266.447 525.1 260.389 524.851 250.339C524.632 241.295 519.519 236.379 506.824 228.932C483.026 214.995 478.749 203.525 478.708 188.198M293.216 354.958C264.016 331.078 248.613 296.763 248.613 255.746V60.758C294.697 36.3631 350.509 24 414.49 24C478.471 24 534.282 36.3631 580.366 60.758V255.746C580.366 296.763 564.964 331.078 535.763 354.964C509.069 376.816 424.229 413.982 414.49 418.211C404.751 413.982 319.911 376.816 293.216 354.958Z" fill="#FFBE00"/>
</svg>
